<mxfile host="65bd71144e">
    <diagram id="ae19R_kALU7PrGxyAkQI" name="Page-1">
        <mxGraphModel dx="2310" dy="1058" grid="0" gridSize="10" guides="1" tooltips="1" connect="1" arrows="1" fold="1" page="0" pageScale="1" pageWidth="827" pageHeight="1169" background="#241D21" math="0" shadow="0">
            <root>
                <mxCell id="0"/>
                <mxCell id="1" parent="0"/>
                <mxCell id="69" style="edgeStyle=none;html=1;exitX=0.5;exitY=0;exitDx=0;exitDy=0;entryX=0.5;entryY=1;entryDx=0;entryDy=0;fillColor=#1ba1e2;strokeColor=#006EAF;strokeWidth=3;rounded=0;" parent="1" edge="1">
                    <mxGeometry relative="1" as="geometry">
                        <Array as="points">
                            <mxPoint x="-664" y="403"/>
                            <mxPoint x="-544" y="403"/>
                        </Array>
                        <mxPoint x="-664" y="433" as="sourcePoint"/>
                        <mxPoint x="-544" y="373" as="targetPoint"/>
                    </mxGeometry>
                </mxCell>
                <mxCell id="2" value="&lt;font style=&quot;font-size: 18px&quot;&gt;&lt;b&gt;Listener&lt;/b&gt;&lt;/font&gt;" style="whiteSpace=wrap;html=1;fillColor=#60a917;fontColor=#ffffff;strokeColor=#2D7600;" parent="1" vertex="1">
                    <mxGeometry x="-724" y="431" width="120" height="60" as="geometry"/>
                </mxCell>
                <mxCell id="61" style="edgeStyle=none;html=1;entryX=0;entryY=0.5;entryDx=0;entryDy=0;fillColor=#1ba1e2;strokeColor=#006EAF;strokeWidth=3;rounded=0;" parent="1" target="27" edge="1">
                    <mxGeometry relative="1" as="geometry">
                        <mxPoint x="-333" y="461" as="sourcePoint"/>
                        <Array as="points">
                            <mxPoint x="-333" y="540"/>
                        </Array>
                    </mxGeometry>
                </mxCell>
                <mxCell id="62" style="edgeStyle=none;html=1;exitX=1;exitY=0.5;exitDx=0;exitDy=0;entryX=0;entryY=0.5;entryDx=0;entryDy=0;fillColor=#1ba1e2;strokeColor=#006EAF;strokeWidth=3;" parent="1" source="3" target="4" edge="1">
                    <mxGeometry relative="1" as="geometry"/>
                </mxCell>
                <mxCell id="63" style="edgeStyle=none;html=1;entryX=0.008;entryY=0.569;entryDx=0;entryDy=0;entryPerimeter=0;fillColor=#1ba1e2;strokeColor=#006EAF;strokeWidth=3;rounded=0;" parent="1" target="54" edge="1">
                    <mxGeometry relative="1" as="geometry">
                        <mxPoint x="-334" y="461" as="sourcePoint"/>
                        <Array as="points">
                            <mxPoint x="-334" y="385"/>
                        </Array>
                    </mxGeometry>
                </mxCell>
                <mxCell id="70" style="edgeStyle=none;html=1;exitX=0.5;exitY=0;exitDx=0;exitDy=0;entryX=0.5;entryY=1;entryDx=0;entryDy=0;fillColor=#1ba1e2;strokeColor=#006EAF;strokeWidth=3;rounded=0;" parent="1" source="3" target="67" edge="1">
                    <mxGeometry relative="1" as="geometry">
                        <mxPoint x="-544.723628117488" y="361.01603346604566" as="targetPoint"/>
                        <Array as="points">
                            <mxPoint x="-424" y="403"/>
                            <mxPoint x="-544" y="403"/>
                        </Array>
                    </mxGeometry>
                </mxCell>
                <mxCell id="3" value="&lt;span style=&quot;font-size: 18px&quot;&gt;&lt;b&gt;Controller&lt;/b&gt;&lt;/span&gt;" style="whiteSpace=wrap;html=1;fillColor=#60a917;fontColor=#ffffff;strokeColor=#2D7600;" parent="1" vertex="1">
                    <mxGeometry x="-484" y="430.5" width="120" height="60" as="geometry"/>
                </mxCell>
                <mxCell id="65" style="edgeStyle=none;html=1;exitX=1;exitY=0.5;exitDx=0;exitDy=0;entryX=0.5;entryY=0;entryDx=0;entryDy=0;fillColor=#1ba1e2;strokeColor=#006EAF;strokeWidth=3;rounded=0;" parent="1" source="4" target="35" edge="1">
                    <mxGeometry relative="1" as="geometry">
                        <Array as="points">
                            <mxPoint x="-3" y="461"/>
                        </Array>
                    </mxGeometry>
                </mxCell>
                <mxCell id="4" value="&lt;span style=&quot;font-size: 18px&quot;&gt;&lt;b&gt;Clock_service&lt;/b&gt;&lt;/span&gt;" style="whiteSpace=wrap;html=1;fillColor=#60a917;fontColor=#ffffff;strokeColor=#2D7600;" parent="1" vertex="1">
                    <mxGeometry x="-294" y="430.5" width="120" height="60" as="geometry"/>
                </mxCell>
                <mxCell id="82" style="edgeStyle=none;rounded=0;html=1;exitX=0;exitY=0.75;exitDx=0;exitDy=0;fontSize=18;fontColor=#FAFF61;strokeWidth=3;fillColor=#1ba1e2;strokeColor=#006EAF;" parent="1" source="5" target="80" edge="1">
                    <mxGeometry relative="1" as="geometry"/>
                </mxCell>
                <mxCell id="5" value="&lt;span style=&quot;font-size: 18px&quot;&gt;&lt;b&gt;Light_view&lt;/b&gt;&lt;/span&gt;" style="whiteSpace=wrap;html=1;fillColor=#60a917;fontColor=#ffffff;strokeColor=#2D7600;" parent="1" vertex="1">
                    <mxGeometry x="-196" y="586" width="120" height="60" as="geometry"/>
                </mxCell>
                <mxCell id="9" style="edgeStyle=none;html=1;exitX=0.5;exitY=1;exitDx=0;exitDy=0;entryX=0.5;entryY=0;entryDx=0;entryDy=0;fontSize=18;fillColor=#1ba1e2;strokeColor=#006EAF;strokeWidth=3;" parent="1" source="2" target="6" edge="1">
                    <mxGeometry relative="1" as="geometry"/>
                </mxCell>
                <mxCell id="6" value="&lt;span style=&quot;font-size: 18px&quot;&gt;&lt;b&gt;Button&lt;/b&gt;&lt;/span&gt;" style="whiteSpace=wrap;html=1;fillColor=#60a917;fontColor=#ffffff;strokeColor=#2D7600;" parent="1" vertex="1">
                    <mxGeometry x="-724" y="548" width="120" height="60" as="geometry"/>
                </mxCell>
                <mxCell id="7" value="&lt;span style=&quot;font-size: 18px&quot;&gt;LED&lt;br&gt;&lt;/span&gt;" style="whiteSpace=wrap;html=1;fillColor=#60a917;fontColor=#ffffff;strokeColor=#2D7600;" parent="1" vertex="1">
                    <mxGeometry x="-196" y="703" width="120" height="60" as="geometry"/>
                </mxCell>
                <mxCell id="8" value="&lt;span style=&quot;font-size: 18px&quot;&gt;&lt;b&gt;LCD&lt;/b&gt;&lt;/span&gt;" style="whiteSpace=wrap;html=1;fillColor=#60a917;fontColor=#ffffff;strokeColor=#2D7600;" parent="1" vertex="1">
                    <mxGeometry x="-63" y="703" width="120" height="60" as="geometry"/>
                </mxCell>
                <mxCell id="10" style="edgeStyle=none;html=1;exitX=1;exitY=0.5;exitDx=0;exitDy=0;fontSize=18;fillColor=#1ba1e2;strokeColor=#006EAF;strokeWidth=3;" parent="1" source="2" target="3" edge="1">
                    <mxGeometry relative="1" as="geometry">
                        <mxPoint x="-574" y="551" as="sourcePoint"/>
                        <mxPoint x="-574" y="501" as="targetPoint"/>
                    </mxGeometry>
                </mxCell>
                <mxCell id="20" value="&lt;b&gt;&lt;font style=&quot;font-size: 25px&quot;&gt;&amp;lt;요구조건&amp;gt;&lt;/font&gt;&lt;/b&gt;" style="whiteSpace=wrap;html=1;fontSize=18;fillColor=#6d8764;fontColor=#ffffff;strokeColor=#3A5431;" parent="1" vertex="1">
                    <mxGeometry x="-928" y="-319" width="173" height="48" as="geometry"/>
                </mxCell>
                <mxCell id="21" value="&lt;div style=&quot;text-align: left&quot;&gt;&lt;b&gt;&amp;lt;완료 사항&amp;gt;&lt;/b&gt;&lt;/div&gt;&lt;div style=&quot;text-align: left&quot;&gt;&lt;b&gt;1. 밝기조절(LED로 표현, 5단계)&lt;/b&gt;&lt;/div&gt;&lt;div style=&quot;text-align: left&quot;&gt;&lt;span&gt;&lt;b&gt;&amp;nbsp; &amp;nbsp;- 버튼 1 제어&lt;/b&gt;&lt;/span&gt;&lt;/div&gt;&lt;div style=&quot;text-align: left&quot;&gt;&lt;span&gt;&lt;b&gt;2. 시계기능(LCD로 표현, Bcaklight ON / OFF)&lt;/b&gt;&lt;/span&gt;&lt;/div&gt;&lt;div style=&quot;text-align: left&quot;&gt;&lt;span&gt;&lt;b&gt;3. LCD 1열 : 밝기단계 / 2열 : 현재시각&lt;/b&gt;&lt;/span&gt;&lt;/div&gt;&lt;div style=&quot;text-align: left&quot;&gt;&lt;div&gt;&lt;b&gt;4. Button2, ON / OFF 설정&lt;/b&gt;&lt;/div&gt;&lt;div&gt;&lt;b&gt;5. 온습도센서(DHT11) 추가 설치&lt;/b&gt;&lt;/div&gt;&lt;div&gt;&lt;b&gt;6. 안전기능 추가(온도가 높으면 warning message LCD 출력, LIGHT off)&lt;/b&gt;&lt;/div&gt;&lt;/div&gt;&lt;div style=&quot;text-align: left&quot;&gt;&lt;span&gt;&lt;b&gt;=======================================================&lt;/b&gt;&lt;/span&gt;&lt;/div&gt;&lt;div style=&quot;text-align: left&quot;&gt;&lt;b&gt;&lt;font color=&quot;#faff61&quot;&gt;&amp;lt;추가 요구사항&amp;gt;&amp;nbsp;&lt;/font&gt;&lt;/b&gt;&lt;/div&gt;&lt;div style=&quot;text-align: left&quot;&gt;&lt;font color=&quot;#faff61&quot;&gt;&lt;b&gt;1. 사용자 위치에 따른 Stand 소점등 : 초음파 센서 활용&lt;/b&gt;&lt;/font&gt;&lt;/div&gt;&lt;div style=&quot;text-align: left&quot;&gt;&lt;font color=&quot;#faff61&quot;&gt;&lt;b&gt;&amp;nbsp; &amp;nbsp;* 기준거리 이내 위치 시 점등 / 없으면 소등&lt;/b&gt;&lt;/font&gt;&lt;/div&gt;&lt;b style=&quot;text-align: left ; color: rgb(250 , 255 , 97)&quot;&gt;&lt;div style=&quot;text-align: justify&quot;&gt;&lt;b&gt;&amp;nbsp; &amp;nbsp;* 20초 이상 공석 시 off&lt;/b&gt;&lt;/div&gt;&lt;/b&gt;&lt;div style=&quot;text-align: left&quot;&gt;&lt;font color=&quot;#faff61&quot;&gt;&lt;b&gt;1. LED(독서등 / 밝기조절 가능) / 5EA&lt;/b&gt;&lt;/font&gt;&lt;/div&gt;&lt;div style=&quot;text-align: left&quot;&gt;&lt;font color=&quot;#faff61&quot;&gt;&lt;b&gt;2.시계기능 + 카운트기능(활동시간 체크) / BTN3 전환(24시간까지 체크)&lt;/b&gt;&lt;/font&gt;&lt;/div&gt;&lt;div style=&quot;text-align: left&quot;&gt;&lt;font color=&quot;#faff61&quot;&gt;&lt;b&gt;3. 온습도센서 + 온도 30도 이상, 선풍기 동작(on/off 기능, BTN4 )&lt;/b&gt;&lt;/font&gt;&lt;/div&gt;&lt;div style=&quot;text-align: left&quot;&gt;&lt;font color=&quot;#faff61&quot;&gt;&lt;b&gt;4. 초음파센서 공석 시 off(20초)&lt;/b&gt;&lt;/font&gt;&lt;/div&gt;" style="whiteSpace=wrap;html=1;fontSize=18;fillColor=#6d8764;fontColor=#ffffff;strokeColor=#3A5431;" parent="1" vertex="1">
                    <mxGeometry x="-926" y="-268" width="599" height="407" as="geometry"/>
                </mxCell>
                <mxCell id="22" value="&lt;b&gt;&lt;font style=&quot;font-size: 32px&quot;&gt;FSM&lt;/font&gt;&lt;/b&gt;" style="whiteSpace=wrap;html=1;fontSize=18;fillColor=#e3c800;fontColor=#000000;strokeColor=#B09500;" parent="1" vertex="1">
                    <mxGeometry x="-481" y="148" width="160" height="50" as="geometry"/>
                </mxCell>
                <mxCell id="24" value="&lt;font color=&quot;#000000&quot; size=&quot;1&quot;&gt;&lt;b style=&quot;font-size: 21px&quot;&gt;5&lt;/b&gt;&lt;/font&gt;" style="text;html=1;align=center;verticalAlign=middle;resizable=0;points=[];autosize=1;strokeColor=#006EAF;fillColor=#1ba1e2;strokeWidth=0;fontColor=#ffffff;" parent="1" vertex="1">
                    <mxGeometry x="-124" y="681" width="30" height="20" as="geometry"/>
                </mxCell>
                <mxCell id="25" value="&lt;font color=&quot;#000000&quot; size=&quot;1&quot;&gt;&lt;b style=&quot;font-size: 21px&quot;&gt;4&lt;/b&gt;&lt;/font&gt;" style="text;html=1;align=center;verticalAlign=middle;resizable=0;points=[];autosize=1;strokeColor=#006EAF;fillColor=#1ba1e2;strokeWidth=0;fontColor=#ffffff;" parent="1" vertex="1">
                    <mxGeometry x="-648" y="525" width="22" height="21" as="geometry"/>
                </mxCell>
                <mxCell id="66" style="edgeStyle=none;html=1;exitX=1;exitY=0.5;exitDx=0;exitDy=0;entryX=0.5;entryY=0;entryDx=0;entryDy=0;fillColor=#1ba1e2;strokeColor=#006EAF;strokeWidth=3;rounded=0;" parent="1" source="27" target="5" edge="1">
                    <mxGeometry relative="1" as="geometry">
                        <Array as="points">
                            <mxPoint x="-136" y="540"/>
                        </Array>
                    </mxGeometry>
                </mxCell>
                <mxCell id="83" style="edgeStyle=none;rounded=0;html=1;exitX=0.25;exitY=1;exitDx=0;exitDy=0;fontSize=18;fontColor=#FAFF61;strokeWidth=3;entryX=0.75;entryY=0;entryDx=0;entryDy=0;fillColor=#1ba1e2;strokeColor=#006EAF;" parent="1" source="27" target="80" edge="1">
                    <mxGeometry relative="1" as="geometry">
                        <mxPoint x="-255" y="593" as="targetPoint"/>
                    </mxGeometry>
                </mxCell>
                <mxCell id="27" value="&lt;span style=&quot;font-size: 18px&quot;&gt;&lt;b&gt;StandLight&lt;br&gt;_service&lt;/b&gt;&lt;/span&gt;" style="whiteSpace=wrap;html=1;fillColor=#60a917;fontColor=#ffffff;strokeColor=#2D7600;" parent="1" vertex="1">
                    <mxGeometry x="-294" y="510" width="120" height="60" as="geometry"/>
                </mxCell>
                <mxCell id="35" value="&lt;span style=&quot;font-size: 18px&quot;&gt;&lt;b&gt;Clock_view&lt;/b&gt;&lt;/span&gt;" style="whiteSpace=wrap;html=1;fillColor=#60a917;fontColor=#ffffff;strokeColor=#2D7600;" parent="1" vertex="1">
                    <mxGeometry x="-63" y="586" width="120" height="60" as="geometry"/>
                </mxCell>
                <mxCell id="37" style="edgeStyle=none;html=1;exitX=0.5;exitY=1;exitDx=0;exitDy=0;fontSize=18;fillColor=#1ba1e2;strokeColor=#006EAF;strokeWidth=3;" parent="1" source="5" target="7" edge="1">
                    <mxGeometry relative="1" as="geometry">
                        <mxPoint x="-286" y="596" as="sourcePoint"/>
                        <mxPoint x="-136" y="696" as="targetPoint"/>
                    </mxGeometry>
                </mxCell>
                <mxCell id="38" style="edgeStyle=none;html=1;exitX=0.5;exitY=1;exitDx=0;exitDy=0;fontSize=18;fillColor=#1ba1e2;strokeColor=#006EAF;strokeWidth=3;entryX=0.5;entryY=0;entryDx=0;entryDy=0;" parent="1" source="35" target="8" edge="1">
                    <mxGeometry relative="1" as="geometry">
                        <mxPoint x="-153" y="656" as="sourcePoint"/>
                        <mxPoint x="-3" y="696" as="targetPoint"/>
                        <Array as="points"/>
                    </mxGeometry>
                </mxCell>
                <mxCell id="40" value="&lt;span style=&quot;font-size: 18px&quot;&gt;&lt;b&gt;Clock_check&lt;/b&gt;&lt;/span&gt;" style="whiteSpace=wrap;html=1;fillColor=#60a917;fontColor=#ffffff;strokeColor=#2D7600;" parent="1" vertex="1">
                    <mxGeometry x="-574" y="548" width="120" height="60" as="geometry"/>
                </mxCell>
                <mxCell id="41" style="edgeStyle=none;html=1;entryX=0.5;entryY=0;entryDx=0;entryDy=0;fontSize=18;fillColor=#1ba1e2;strokeColor=#006EAF;strokeWidth=3;rounded=0;" parent="1" target="40" edge="1">
                    <mxGeometry relative="1" as="geometry">
                        <mxPoint x="-664" y="511" as="sourcePoint"/>
                        <mxPoint x="-654" y="561" as="targetPoint"/>
                        <Array as="points">
                            <mxPoint x="-514" y="511"/>
                        </Array>
                    </mxGeometry>
                </mxCell>
                <mxCell id="46" value="pre" style="whiteSpace=wrap;html=1;fontSize=21;fontColor=#ffffff;strokeWidth=10;fillColor=#d80073;strokeColor=#A50040;" parent="1" vertex="1">
                    <mxGeometry x="-986" y="264" width="103" height="41" as="geometry"/>
                </mxCell>
                <mxCell id="47" value="complete" style="whiteSpace=wrap;html=1;fontSize=21;fontColor=#ffffff;strokeWidth=10;fillColor=#60a917;strokeColor=#2D7600;" parent="1" vertex="1">
                    <mxGeometry x="-987" y="361" width="104" height="40" as="geometry"/>
                </mxCell>
                <mxCell id="49" value="&lt;b&gt;&lt;font color=&quot;#ffffff&quot;&gt;Legend&lt;/font&gt;&lt;/b&gt;" style="text;html=1;align=center;verticalAlign=middle;resizable=0;points=[];autosize=1;strokeColor=none;fillColor=none;fontSize=21;fontColor=#000000;" parent="1" vertex="1">
                    <mxGeometry x="-977" y="225" width="85" height="29" as="geometry"/>
                </mxCell>
                <mxCell id="51" style="edgeStyle=none;html=1;fontSize=18;fillColor=#1ba1e2;strokeColor=#006EAF;strokeWidth=3;rounded=0;endArrow=classicThin;endFill=1;entryX=0.25;entryY=0;entryDx=0;entryDy=0;" parent="1" target="8" edge="1">
                    <mxGeometry relative="1" as="geometry">
                        <mxPoint x="-136" y="668" as="sourcePoint"/>
                        <mxPoint x="-4" y="668" as="targetPoint"/>
                        <Array as="points">
                            <mxPoint x="-33" y="668"/>
                        </Array>
                    </mxGeometry>
                </mxCell>
                <mxCell id="79" style="edgeStyle=none;html=1;exitX=0.25;exitY=0;exitDx=0;exitDy=0;entryX=0;entryY=0.5;entryDx=0;entryDy=0;fontSize=25;fontColor=#FAFF61;fillColor=#1ba1e2;strokeColor=#006EAF;strokeWidth=3;rounded=0;" parent="1" source="52" target="67" edge="1">
                    <mxGeometry relative="1" as="geometry">
                        <Array as="points">
                            <mxPoint x="-845" y="341"/>
                        </Array>
                    </mxGeometry>
                </mxCell>
                <mxCell id="52" value="&lt;span style=&quot;font-size: 18px&quot;&gt;&lt;b&gt;DHT11&lt;/b&gt;&lt;/span&gt;" style="whiteSpace=wrap;html=1;fillColor=#60a917;fontColor=#ffffff;strokeColor=#2D7600;" parent="1" vertex="1">
                    <mxGeometry x="-875" y="548" width="120" height="60" as="geometry"/>
                </mxCell>
                <mxCell id="53" style="edgeStyle=none;html=1;entryX=0.5;entryY=0;entryDx=0;entryDy=0;fontSize=18;fillColor=#1ba1e2;strokeColor=#006EAF;strokeWidth=3;rounded=0;" parent="1" target="52" edge="1">
                    <mxGeometry relative="1" as="geometry">
                        <mxPoint x="-665" y="511" as="sourcePoint"/>
                        <mxPoint x="-654" y="558" as="targetPoint"/>
                        <Array as="points">
                            <mxPoint x="-815" y="511"/>
                        </Array>
                    </mxGeometry>
                </mxCell>
                <mxCell id="64" style="edgeStyle=none;html=1;exitX=1;exitY=0.5;exitDx=0;exitDy=0;entryX=0.5;entryY=0;entryDx=0;entryDy=0;fillColor=#1ba1e2;strokeColor=#006EAF;strokeWidth=3;rounded=0;" parent="1" target="55" edge="1">
                    <mxGeometry relative="1" as="geometry">
                        <mxPoint x="-163" y="380" as="sourcePoint"/>
                        <mxPoint x="258" y="617" as="targetPoint"/>
                        <Array as="points">
                            <mxPoint x="130" y="380"/>
                        </Array>
                    </mxGeometry>
                </mxCell>
                <mxCell id="72" style="edgeStyle=none;html=1;exitX=0;exitY=0.25;exitDx=0;exitDy=0;entryX=1;entryY=0.5;entryDx=0;entryDy=0;fillColor=#1ba1e2;strokeColor=#006EAF;strokeWidth=3;rounded=0;" parent="1" source="54" target="67" edge="1">
                    <mxGeometry relative="1" as="geometry">
                        <Array as="points">
                            <mxPoint x="-381" y="366"/>
                            <mxPoint x="-381" y="341"/>
                        </Array>
                    </mxGeometry>
                </mxCell>
                <mxCell id="54" value="&lt;span style=&quot;font-size: 18px&quot;&gt;&lt;b&gt;TempHumid&lt;br&gt;_service&lt;br&gt;&lt;/b&gt;&lt;/span&gt;" style="whiteSpace=wrap;html=1;fillColor=#60a917;fontColor=#ffffff;strokeColor=#2D7600;" parent="1" vertex="1">
                    <mxGeometry x="-294" y="351" width="120" height="60" as="geometry"/>
                </mxCell>
                <mxCell id="88" style="edgeStyle=none;html=1;exitX=0.75;exitY=1;exitDx=0;exitDy=0;entryX=0.75;entryY=0;entryDx=0;entryDy=0;strokeWidth=3;fillColor=#1ba1e2;strokeColor=#006EAF;" parent="1" source="55" target="85" edge="1">
                    <mxGeometry relative="1" as="geometry"/>
                </mxCell>
                <mxCell id="55" value="&lt;span style=&quot;font-size: 18px&quot;&gt;&lt;b&gt;TempHumid&lt;br&gt;_view&lt;/b&gt;&lt;/span&gt;" style="whiteSpace=wrap;html=1;fillColor=#60a917;fontColor=#ffffff;strokeColor=#2D7600;" parent="1" vertex="1">
                    <mxGeometry x="70" y="586" width="120" height="60" as="geometry"/>
                </mxCell>
                <mxCell id="67" value="&lt;font style=&quot;font-size: 18px&quot;&gt;&lt;b&gt;DHT_Data&lt;/b&gt;&lt;/font&gt;" style="whiteSpace=wrap;html=1;fillColor=#60a917;fontColor=#ffffff;strokeColor=#2D7600;" parent="1" vertex="1">
                    <mxGeometry x="-604" y="311" width="120" height="60" as="geometry"/>
                </mxCell>
                <mxCell id="74" style="edgeStyle=none;html=1;exitX=0.5;exitY=1;exitDx=0;exitDy=0;fontSize=18;fillColor=#1ba1e2;strokeColor=#006EAF;strokeWidth=3;rounded=0;entryX=0.75;entryY=0;entryDx=0;entryDy=0;" parent="1" source="55" target="8" edge="1">
                    <mxGeometry relative="1" as="geometry">
                        <mxPoint x="7" y="656" as="sourcePoint"/>
                        <mxPoint x="-3" y="677" as="targetPoint"/>
                        <Array as="points">
                            <mxPoint x="130" y="677"/>
                            <mxPoint x="27" y="677"/>
                        </Array>
                    </mxGeometry>
                </mxCell>
                <mxCell id="77" value="&lt;span style=&quot;font-size: 18px&quot;&gt;&lt;b&gt;Ultrasonic&lt;br&gt;_distance check&lt;br&gt;&lt;/b&gt;&lt;/span&gt;" style="whiteSpace=wrap;html=1;fillColor=#f0a30a;fontColor=#000000;strokeColor=#BD7000;" parent="1" vertex="1">
                    <mxGeometry x="-1026" y="548" width="120" height="60" as="geometry"/>
                </mxCell>
                <mxCell id="78" style="edgeStyle=none;html=1;entryX=0.5;entryY=0;entryDx=0;entryDy=0;fontSize=18;fillColor=#1ba1e2;strokeColor=#006EAF;strokeWidth=3;rounded=0;" parent="1" edge="1">
                    <mxGeometry relative="1" as="geometry">
                        <mxPoint x="-815" y="511" as="sourcePoint"/>
                        <mxPoint x="-966" y="546" as="targetPoint"/>
                        <Array as="points">
                            <mxPoint x="-966" y="511"/>
                        </Array>
                    </mxGeometry>
                </mxCell>
                <mxCell id="80" value="&lt;font style=&quot;font-size: 18px&quot;&gt;&lt;b&gt;&amp;lt;&amp;lt;enum&amp;gt;&amp;gt;&lt;br&gt;&lt;/b&gt;Light_state&lt;/font&gt;" style="whiteSpace=wrap;html=1;fillColor=#60a917;fontColor=#ffffff;strokeColor=#2D7600;" parent="1" vertex="1">
                    <mxGeometry x="-353" y="601" width="120" height="60" as="geometry"/>
                </mxCell>
                <mxCell id="84" value="today" style="whiteSpace=wrap;html=1;fontSize=21;fontColor=#000000;strokeWidth=10;fillColor=#f0a30a;strokeColor=#BD7000;" parent="1" vertex="1">
                    <mxGeometry x="-987" y="313" width="104" height="40" as="geometry"/>
                </mxCell>
                <mxCell id="85" value="&lt;span style=&quot;font-size: 18px&quot;&gt;&lt;b&gt;DC motor&lt;br&gt;&lt;/b&gt;&lt;/span&gt;" style="whiteSpace=wrap;html=1;fillColor=#f0a30a;fontColor=#000000;strokeColor=#BD7000;" parent="1" vertex="1">
                    <mxGeometry x="70" y="703" width="120" height="60" as="geometry"/>
                </mxCell>
            </root>
        </mxGraphModel>
    </diagram>
</mxfile>